Patient4_TMGait_0pt7_02_left_34_EMG.mot
version=1
nRows=40
nColumns=33
inDegrees=no
endheader
time	1LAddLong	2LGlutMax	3LGlutMed	4LIliopsoas	5LSemiMemb	6LBicFemLong	7LRecFem	8LVastMed	9LVastLat	10LGasMed	11LTibAnt	12lTibPost	13LPeroneusLong	14LSol	15LExtDigLong	16LFlexDigLong	17RAddLong	18RGlutMax	19RGlutMed	20RIliopsoas	21RSemiMemb	22RBicFemLong	23RRecFem	24RVastMed	25RVastLat	26RGasMed	27RTibAnt	28RTibPost	29RPeroneusLong	30RSol	31RExtDigLong	32RFlexDigLong
39.277	-0.003967	0.90683	-0.06073	-0.001831	-0.00351	0.41672	-0.94162	0.026093	-0.054016	0.39322	0.046997	0.018005	-0.2919	0.25055	0.007019	-0.1181	0.092621	-0.57754	0.14542	0.073242	-0.17014	-0.091553	0.91599	-0.26077	-0.048523	-0.010376	-0.17044	0.11353	0.793	0.92956	0.000916	-0.015564
39.278	0.00412	0.88318	-0.080566	0.011292	-0.000916	0.64117	-0.94711	0.015564	-0.28076	0.45105	-0.022736	0.033112	-0.61615	0.25421	-0.092163	0.025482	0.058746	-0.69122	0.15488	0.18616	-0.19104	-0.093536	0.91065	-0.26794	-0.044861	-0.018768	-0.1947	-0.092926	0.56717	0.5751	-0.003662	-0.020447
39.279	-0.009613	0.93597	-0.1178	0.018921	-0.098419	0.75867	-0.89539	0.012054	-0.3566	0.35019	-0.030365	0.03479	-0.65781	0.22964	-0.080872	0.23086	0.052185	-0.76477	0.22995	0.20386	-0.20294	-0.086365	0.88806	-0.25604	-0.013733	-0.037231	-0.13611	0.10544	0.49362	0.90546	-0.002441	-0.02533
39.28	-0.023041	1.0216	-0.16739	0.027313	-0.15976	0.77988	-0.83649	0.025177	-0.42526	-0.25848	-0.018005	0.035858	-0.002747	0.009918	-0.041656	0.09491	0.019836	-0.84	0.14038	0.10864	-0.21606	-0.08606	0.88531	-0.29388	-0.029144	-0.034943	-0.049744	-0.36575	0.36041	-0.058899	0.001068	-0.023804
39.281	-0.028687	1.0768	-0.19974	-0.000458	-0.15213	0.70908	-0.78156	0.021515	-0.4364	-0.88562	-0.031891	0.019989	0.17029	0.068665	-0.037537	-0.16327	0.023956	-0.91003	0.048828	0.005341	-0.22095	-0.067444	0.86487	-0.23071	-0.016174	-0.037231	0.020294	0.21774	-0.06424	-1.1479	-0.008392	-0.014496
39.282	-0.018921	1.1813	-0.11993	0.006866	-0.1326	0.30823	-0.72555	0.010681	-0.31387	-0.78339	-0.040588	0.001678	0.30167	0.31693	0.064392	-0.15198	0.029297	-0.95123	0.079956	0.053253	-0.21362	-0.038757	0.89584	-0.24765	-0.014954	-0.033875	0.005188	0.25909	-0.28107	-1.1156	-0.006256	-0.004578
39.283	-0.001984	1.3948	-0.079346	0.005188	-0.063477	0.14984	-0.69199	0.002136	-0.14938	-0.39032	-0.030823	-0.020905	-0.075378	0.3952	0.033112	-0.054626	0.030212	-0.95322	0.084381	0.1326	-0.20218	-0.018158	0.83542	-0.19623	-0.011139	-0.024872	0.003052	0.087585	-0.36224	0.43335	-0.000916	-0.00351
39.284	0.009766	1.5681	0.083771	0.030823	0.005951	-0.15503	-0.6575	-0.004578	-0.087891	-0.177	0.000153	-0.022736	-0.022736	0.24307	-0.16708	-0.030975	-0.029144	-0.98404	-0.033569	0.1442	-0.20905	-0.020905	0.8255	-0.20859	-0.011444	-0.019379	-0.032501	0.021973	-0.35721	0.61661	-0.001831	-0.004883
39.285	0.003052	1.7224	0.14008	0.020905	0.007019	-0.3772	-0.57205	-0.014496	-0.00824	-0.003662	0.012817	-0.024719	0.005493	0.26886	-0.13534	-0.002747	-0.054474	-0.99731	0.011902	0.14099	-0.20218	-0.006409	0.79987	-0.15701	-0.00061	-0.00885	-0.033264	0.006714	-0.043335	0.092926	-0.006409	-0.002594
39.286	-0.003815	1.8855	0.048981	0.015717	-0.016632	-0.035858	-0.44601	-0.018768	0.058594	0.000153	-0.00885	-0.017242	0.045319	0.28275	-0.070496	0.008545	-0.00824	-0.99915	0.18707	0.090332	-0.18601	0.014496	0.79376	-0.16693	0.000153	-0.000153	0.018005	-0.023346	-0.043335	-0.13001	-0.002747	-0.006256
39.287	-0.009613	2.2008	-0.044403	0.011444	-0.051117	0.11459	-0.39093	-0.001678	0.043945	-0.11444	0.05249	-0.030365	0.064697	0.34744	0.019379	0.01236	0.020447	-0.98328	0.17822	0.081787	-0.1712	-0.001526	0.79437	-0.20676	-0.015411	-0.00351	0.055542	-0.024261	-0.079193	0.21515	-0.002747	-0.005798
39.288	-0.028534	2.518	-0.080566	0.001068	-0.026245	-0.22888	-0.32516	-0.007324	0.015411	-0.12283	0.11429	-0.03479	0.048218	0.31708	0.06134	0.026398	0.003967	-0.97687	-0.14267	0.11337	-0.15228	0.009003	0.79117	-0.20538	-0.029144	0.007477	0.044861	-0.016937	0.30487	0.21072	-0.001526	-0.005493
39.289	-0.024719	2.8732	-0.090179	-0.012665	-0.043335	-0.51788	-0.29297	0.005951	-0.028687	0.016479	0.10773	-0.037384	-0.21896	0.3096	0.012207	0.029449	-0.039063	-0.91263	-0.30563	0.030212	-0.14008	0.010376	0.74051	-0.21164	0.000916	0.018311	-0.017548	0.003204	0.21988	0.38574	0.001373	-0.006104
39.29	-0.024109	2.7448	-0.15686	-0.029755	-0.15381	-0.26443	-0.26001	0.000458	0.025635	0.23804	0.029602	-0.044708	-0.68588	0.22079	0.032806	0.041809	-0.041504	-0.78583	-0.19455	-0.084686	-0.13565	0.015106	0.70999	-0.18509	0.006714	0.016022	-0.001068	-0.070038	0.42297	-0.21042	-0.000763	-0.001221
39.291	-0.020142	2.4974	-0.10162	-0.040894	-0.19836	0.018921	-0.21683	-0.003815	0.12207	0.061798	-0.089111	-0.044708	-0.82581	0.17517	0.2211	0.045929	-0.065002	-0.67856	-0.20554	-0.18463	-0.12375	0.043335	0.68756	-0.16388	-0.000458	0.019989	0.031891	-0.063477	0.17364	-0.90134	-0.007782	-0.015259
39.292	-0.009003	2.2615	0.10346	-0.03006	-0.17181	-0.035248	-0.2681	-0.018311	0.079956	-0.023346	-0.084381	-0.0383	-0.022736	0.14725	0.45059	0.038605	-0.074158	-0.5925	-0.33035	-0.23483	-0.12451	0.031433	0.69382	-0.13702	-0.006256	-0.019836	0.03418	-0.067596	-0.42587	-1.0353	-0.003815	-0.018463
39.293	0.00885	1.9489	0.080109	0.006561	-0.15106	-0.42206	-0.34851	-0.036621	0.04715	-0.039978	-0.055542	-0.04303	0.93002	0.063477	0.28748	0.032501	-0.056763	-0.48538	-0.20706	-0.22903	-0.12268	0.008698	0.70862	-0.14435	-0.035095	-0.0177	0.042419	0.024872	-0.75378	0.055695	-0.005493	-0.011444
39.294	0.026703	1.526	0.13397	0.039215	-0.066528	-0.79697	-0.33402	-0.015564	0.047455	0.082855	-0.037994	-0.026855	0.94971	-0.045166	-0.011902	0.023041	-0.040131	-0.40024	-0.063171	-0.22232	-0.12878	0.002899	0.71945	-0.16617	-0.041504	0.010834	-0.023346	-0.24948	0.25253	0.25345	-0.004578	-0.008698
39.295	0.034027	1.0316	0.11765	-0.00412	-0.031891	-0.56427	-0.18372	-0.023346	0.10162	0.15854	0.045624	-0.026398	0.90561	-0.17929	-0.25055	0.015869	-0.048523	-0.3923	-0.11673	-0.17868	-0.14404	0.010223	0.67307	-0.12436	-0.034027	0.025635	-0.03891	0.17258	0.53879	0.24963	-0.003662	-0.007172
39.296	0.033875	0.58166	0.092926	-0.009308	-0.020599	-0.15274	-0.093231	-0.025635	0.14771	0.23727	0.06897	-0.027313	0.56702	-0.34821	-0.13199	0.002747	-0.049286	-0.40131	-0.27939	-0.11002	-0.14145	0.002289	0.60684	-0.11826	-0.028687	0.065613	0.005951	0.15732	-0.2269	0.055542	-0.003052	-0.003204
39.297	0.045776	0.35584	0.093384	0.013275	-0.02533	-0.25711	-0.05188	-0.016327	0.20172	-0.1413	0.037384	-0.025177	0.20554	-0.17578	0.14984	0.017853	0.002899	-0.35416	-0.3801	-0.091248	-0.14862	-0.010071	0.57144	-0.13397	-0.045929	0.097198	0.037994	0.057373	-0.57754	0.24094	0	-0.007324
39.298	0.040436	0.22553	0.16174	-0.002899	-0.011292	-0.51941	-0.11276	-0.01709	0.15793	-0.5571	-0.014191	-0.025177	-0.27985	0.08255	0.33295	0.001068	0.044861	-0.33524	-0.39551	-0.055542	-0.16007	-0.014343	0.54718	-0.11978	-0.050507	0.10422	0.066681	-0.060577	-0.37964	0.45548	-0.000153	-0.000916
39.299	0.038147	0.091095	0.20889	-0.013885	0.077362	-0.084534	-0.1564	-0.014954	0.23453	-0.14114	-0.014038	-0.016327	-0.98618	-0.052795	0.014801	0.000305	0.066986	-0.345	-0.36636	0.046387	-0.16998	-0.027771	0.45746	-0.18448	-0.0383	0.11261	0.072632	-0.2475	-0.75516	0.25665	-0.000763	-0.00473
39.3	0.025787	0.006866	0.077972	0.011597	0.061188	0.15671	-0.103	-0.019989	0.21881	0.24735	-0.002899	-0.016632	-0.47653	-0.25848	-0.13718	-0.009003	0.057831	-0.41046	-0.41321	0.2533	-0.17273	0	0.3714	-0.1741	0.006561	0.076294	-0.075226	-0.13153	0.095062	-0.064087	-0.00473	0.000763
39.301	0.029602	-0.090179	0.053101	0.047455	0.024261	0.13794	-0.12589	-0.022278	0.20706	0.28137	-0.081482	-0.012665	-0.44357	-0.26001	-0.21606	-0.003052	0.040894	-0.4657	-0.28366	0.23651	-0.16754	0.015564	0.30716	-0.12772	0.018921	-0.009613	-0.075378	-0.29816	0.26276	-0.23178	0.00061	-0.000153
39.302	0.025177	-0.26535	0.060272	0.033112	0.072174	0.14542	-0.1564	-0.022736	0.18677	0.33188	-0.093689	0	-0.12863	-0.25497	0.15427	-0.001984	0.029755	-0.40909	-0.11765	0.093842	-0.17273	0.008698	0.29739	-0.13931	0.019073	-0.089417	0.031128	0.21683	0.17929	-0.48202	-0.004883	-0.007782
39.303	0.009308	-0.36407	-0.008698	0.02182	0.059204	0.35416	-0.21042	-0.011444	0.15381	0.37033	-0.000153	0.015411	0.18646	-0.14328	0.27847	-0.009613	0.021973	-0.41092	-0.025177	-0.002441	-0.16129	-0.002289	0.30899	-0.087891	0.018463	-0.13001	0.038757	0.096588	0.12009	-1.1153	-0.002441	-0.023041
39.304	0.002289	-0.48538	-0.023651	-0.001373	0.006866	0.52994	-0.21957	-0.006561	0.11246	0.27222	0.022736	0.022278	0.10956	-0.27924	-0.19058	-0.017242	-0.005798	-0.28153	-0.31891	0.061646	-0.16037	0.005646	0.30807	-0.083923	0.017853	-0.12161	0.047302	-0.1767	-0.27191	-0.78537	-0.001373	-0.010376
39.305	-0.00412	-0.56152	-0.004425	0.002136	-0.068054	0.43564	-0.26977	0.007019	0.074005	-0.50171	0.15106	0.017548	-0.05249	-0.32715	-0.058136	-0.009308	0.022278	-0.18997	-0.30136	0.088654	-0.13901	0.016022	0.35492	-0.087433	-0.011139	-0.068359	0.054169	-0.35645	0.35538	0.22156	-0.003052	-0.006561
39.306	-0.019073	-0.67459	0.017853	-0.002289	-0.10147	0.30334	-0.31052	0.030212	0.10117	-0.48828	0.32532	0.006409	-0.17349	-0.1709	-0.37048	-0.011292	0.081177	-0.1474	-0.4097	0.068054	-0.11215	0.001984	0.43762	-0.04837	-0.011749	-0.046234	0.12146	0.36026	0.59036	1.6219	-0.001221	-0.014801
39.307	-0.014191	-0.78964	0.075684	-0.000153	-0.10117	0.15579	-0.32867	0.025635	0.15732	-0.32105	0.27863	0.004425	0.7309	-0.010529	-0.3392	-0.01358	0.079193	-0.16052	-0.3804	-0.018005	-0.13016	-0.010681	0.48599	-0.12741	-0.018005	-0.014954	0.16312	0.13397	0.57312	1.4078	-0.002747	-0.000305
39.308	-0.023804	-0.72235	0.066223	-0.002747	-0.11826	0.23407	-0.29343	0.014038	0.13275	-0.29175	-0.054169	0.011139	2.0641	0.16235	-0.044403	-0.008698	0.059509	-0.21591	-0.53024	0.037384	-0.12848	-0.011597	0.5394	-0.17761	-0.037994	0.001526	0.080414	0.38269	0.36682	0.67108	-0.001831	0.003357
39.309	-0.042114	-0.74463	0.023956	0.008087	-0.12924	0.26352	-0.27542	0.049438	0.15182	-0.23209	-0.29663	0.015411	1.2209	0.2449	-0.020447	-0.009766	0.062866	-0.21957	-0.6308	0.13825	-0.12756	-0.003662	0.53375	-0.14435	-0.03479	-0.023193	-0.040894	0.35843	0.89401	-0.042725	0.001221	-0.002136
39.31	-0.020447	-0.69946	0.10696	0.040894	-0.10849	0.14862	-0.25589	0.068665	0.19836	-0.12466	-0.22263	-0.000916	-0.59616	0.066071	-0.19806	-0.017548	0.050659	-0.20569	-0.6456	0.1532	-0.15793	-0.027771	0.54504	-0.17563	-0.034637	-0.037384	-0.14999	0.070801	1.6196	-0.066376	-0.001984	-0.010681
39.311	-0.005646	-0.62408	0.19745	0.032654	-0.08255	-0.028534	-0.27542	0.05188	0.18387	-0.070496	-0.13077	0.005951	-0.46936	-0.10193	-0.13947	-0.019073	0.000305	-0.29053	-0.67276	0.15747	-0.16266	-0.027161	0.5484	-0.22964	-0.043793	-0.02594	-0.26016	0.07431	1.1969	0.30289	-0.003204	-0.003967
39.312	-0.007477	-0.5513	0.23315	0.014648	-0.024872	-0.15503	-0.31708	0.034943	0.1973	0.036011	-0.059052	0.000305	-0.63034	-0.11169	-0.080566	-0.011597	-0.021515	-0.42374	-0.81299	0.159	-0.15106	-0.009155	0.52124	-0.2269	-0.028839	-0.00473	-0.20172	0.011139	0.25757	0.28793	0.000305	0.007629
39.313	-0.014648	-0.48752	0.16159	-0.001984	0.056	0.17807	-0.32272	0.024872	0.20874	0.25253	0.05188	0.003052	-0.24857	-0.025635	-0.009766	-0.011902	-0.019379	-0.47211	-0.69138	0.13367	-0.12726	0.011444	0.49027	-0.23926	-0.023041	0.00473	-0.10666	0.017242	-0.073547	0.103	-0.000305	0.004578
39.314	-0.016785	-0.44022	0.20844	0.008392	0.095673	0.39276	-0.34073	0.010376	0.22583	0.3096	0.20874	-0.00885	-0.40665	-0.13596	-0.023499	-0.007477	-0.001526	-0.6044	-0.58945	0.098877	-0.073853	0.06485	0.50491	-0.15167	-0.020599	0.001678	-0.035706	-0.009155	0.47089	-0.094452	-0.004883	0.00885
39.315	-0.028839	-0.50507	-0.03067	0.027771	0.040436	0.63858	-0.38483	-0.008392	0.19898	0.24719	0.17456	-0.006561	0.07019	-0.12726	0.10468	-0.005798	0.047607	-0.6456	-0.74112	0.063171	-0.041199	0.072021	0.49652	-0.052948	-0.031433	0.01236	-0.000763	-0.027771	-0.86441	-0.28809	-0.003052	-0.005188
39.316	-0.013428	-0.56534	-0.36957	0.03006	-0.005035	0.60028	-0.37399	-0.017395	0.093384	0.1178	-0.073242	-0.013428	0.24582	-0.1149	0.34988	-0.00824	0.070038	-0.68787	-0.80994	0.056915	-0.028076	0.082245	0.50049	-0.014801	-0.010223	0.024567	-0.049591	-0.05127	-0.83084	-0.54398	0.001526	-0.005646
